<svg width="512" height="512" xmlns="http://www.w3.org/2000/svg">

 <g>
  <title>background</title>
  <rect fill="none" id="canvas_background" height="402" width="582" y="-1" x="-1"/>
 </g>
 <g>
  <title>Layer 1</title>
  <path fill="#333333" id="svg_4" d="m443.940002,296.470001c-2.360016,0 -4.670013,-1.200012 -5.98999,-3.369995c-12.52002,-20.610016 -32,-35.970001 -54.860016,-43.25c-3.679993,-1.170013 -5.720001,-5.110001 -4.549988,-8.790009s5.109985,-5.720001 8.789978,-4.539993c26.080017,8.309998 48.300018,25.819992 62.570007,49.319992c2.01001,3.300018 0.959991,7.610016 -2.350006,9.619995c-1.119995,0.690002 -2.369995,1.01001 -3.609985,1.01001z" class="st1"/>
  <path fill="#333333" id="svg_6" d="m126.790001,275.809998c-0.700005,0 -1.419998,-0.109985 -2.129997,-0.329987c-29.990005,-9.550018 -54.880005,-31.410004 -68.290005,-59.970016c-1.639999,-3.5 -0.139999,-7.669998 3.360001,-9.309998c3.5,-1.649994 7.670002,-0.139999 9.310001,3.360001c11.760002,25.040009 33.580002,44.209991 59.870003,52.580017c3.679993,1.169983 5.720001,5.109985 4.550003,8.789978c-0.950012,2.980011 -3.710007,4.880005 -6.670006,4.880005z" class="st1"/>
  <path fill="#0000bf" id="svg_8" d="m353.019989,296.480011c-3.869995,0 -7,-3.130005 -7,-7l0,-57.380005l-180.049988,0l0,50.380005l147.880005,0c3.869995,0 7,3.130005 7,7s-3.130005,7 -7,7l-154.880005,0c-3.869995,0 -7,-3.130005 -7,-7l0,-64.380005c0,-3.869995 3.130005,-7 7,-7l194.049988,0c3.870026,0 7,3.130005 7,7l0,64.380005c0,3.859985 -3.129974,7 -7,7z" class="st1"/>
  <path fill="#333333" id="svg_10" d="m471.279999,498.5l-64.380005,0c-3.869995,0 -7,-3.130005 -7,-7l0,-123.720001c0,-3.869995 3.130005,-7 7,-7l64.380005,0c3.869995,0 7,3.130005 7,7s-3.130005,7 -7,7l-57.380005,0l0,109.720001l50.380005,0l0,-88.950012c0,-3.869995 3.130005,-7 7,-7s7,3.130005 7,7l0,95.950012c0,3.869995 -3.130005,7 -7,7z" class="st1"/>
  <path fill="#1b3954" id="svg_12" d="m104.18,99.230003c-0.449997,0 -0.910004,-0.040001 -1.360001,-0.130005c-0.449997,-0.089996 -0.889999,-0.229996 -1.309998,-0.400002c-0.43,-0.18 -0.830002,-0.389999 -1.209999,-0.649994c-0.389999,-0.25 -0.740005,-0.540001 -1.07,-0.870003c-0.32,-0.32 -0.610001,-0.68 -0.870003,-1.059998c-0.25,-0.380005 -0.470001,-0.790001 -0.639999,-1.209999c-0.18,-0.420006 -0.309998,-0.860001 -0.400002,-1.310005s-0.139999,-0.909996 -0.139999,-1.369995c0,-0.450005 0.050003,-0.910004 0.139999,-1.360001c0.090004,-0.450005 0.220001,-0.889999 0.400002,-1.310005c0.169998,-0.43 0.389999,-0.829994 0.639999,-1.209999c0.260002,-0.389999 0.550003,-0.739998 0.870003,-1.07c0.329994,-0.32 0.68,-0.610001 1.07,-0.869995c0.379997,-0.25 0.779999,-0.470001 1.209999,-0.640007c0.419998,-0.169998 0.860001,-0.309998 1.299995,-0.399994c0.910004,-0.18 1.840004,-0.18 2.740005,0c0.449997,0.089996 0.889999,0.229996 1.309998,0.399994s0.830002,0.390007 1.209999,0.640007c0.379997,0.259995 0.739998,0.549995 1.059998,0.869995c0.330002,0.330002 0.620003,0.68 0.870003,1.07c0.260002,0.380005 0.470001,0.779999 0.650002,1.209999c0.169998,0.420006 0.309998,0.860001 0.400002,1.310005c0.089996,0.449997 0.129997,0.909996 0.129997,1.360001c0,0.459999 -0.040001,0.919998 -0.129997,1.369995s-0.230003,0.889999 -0.400002,1.310005c-0.18,0.419998 -0.389999,0.829994 -0.650002,1.209999c-0.25,0.379997 -0.540001,0.739998 -0.870003,1.059998c-0.32,0.330002 -0.68,0.620003 -1.059998,0.870003c-0.379997,0.259995 -0.790001,0.469994 -1.209999,0.649994c-0.419998,0.170006 -0.860001,0.310005 -1.309998,0.400002c-0.450005,0.090004 -0.910004,0.130005 -1.370003,0.130005z" class="st1"/>
  <path fill="#333333" id="svg_14" d="m104.18,151.220001l-64.380001,0c-3.869999,0 -7,-3.130005 -7,-7l0,-123.720001c0,-3.870001 3.130001,-7 7,-7l64.380001,0c3.870003,0 7,3.129999 7,7l0,51.309998c0,3.870003 -3.129997,7 -7,7s-7,-3.129997 -7,-7l0,-44.309998l-50.380001,0l0,109.720001l50.380001,0l0,-22.860001c0,-3.870003 3.129997,-7 7,-7s7,3.129997 7,7l0,29.860001c0,3.869995 -3.129997,7 -7,7z" class="st1"/>
  <path fill="#00bf00" id="svg_16" d="m491.5,374.779999l-102.529999,0c-3.869995,0 -7,-3.130005 -7,-7l0,-23.279999c0,-15.959991 -12.980011,-28.950012 -28.940002,-28.950012c-3.869995,0 -7,-3.129974 -7,-7l0,-102.529984c0,-3.87001 3.130005,-7 7,-7c80.209991,0 145.470001,65.259995 145.470001,145.470016l0,23.279999c0,3.879974 -3.130005,7.009979 -7,7.009979zm-95.529999,-14l88.529999,0l0,-16.279999c0,-70.149994 -55.220001,-127.639999 -124.470001,-131.289993l0,88.919998c20.360016,3.350006 35.940002,21.079987 35.940002,42.380005l0,16.269989z" class="st0"/>
  <path fill="#ff0000" id="svg_18" d="m158.970001,312.980011c-31.510002,0 -61.510002,-9.950012 -86.770004,-28.779999c-3.099998,-2.309998 -3.739998,-6.700012 -1.43,-9.799988c2.310005,-3.100006 6.700005,-3.740021 9.800003,-1.430023c20.94001,15.610016 45.5,24.470001 71.400017,25.820007l0,-88.919998c-20.360001,-3.350006 -35.94001,-21.080002 -35.94001,-42.380005l0,-16.279999l-88.530006,0l0,16.279999c0,27.550003 8.470001,53.940002 24.490002,76.330002c2.25,3.139999 1.529999,7.520004 -1.620003,9.770004c-3.139999,2.25 -7.52,1.529999 -9.77,-1.619995c-17.729998,-24.780014 -27.099998,-53.990005 -27.099998,-84.470001l0,-23.279999c0,-3.87001 3.129999,-7 7,-7l102.529999,0c3.870003,0 7,3.12999 7,7l0,23.279999c0,15.959991 12.979996,28.949997 28.940002,28.949997c3.869995,0 7,3.130005 7,7l0,102.529999c0,3.859985 -3.130005,7 -7,7z" class="st0"/>
 </g>
</svg>